<?xml version="1.0" encoding="UTF-8"?>
<svg width="102px" height="102px" viewBox="0 0 102 102" version="1.1" xmlns="http://www.w3.org/2000/svg" xmlns:xlink="http://www.w3.org/1999/xlink">
    <g id="main" stroke="none" stroke-width="1" fill-rule="evenodd">
        <g transform="translate(-669.000000, -1527.000000)">
            <g transform="translate(112.000000, 1357.000000)">
                <g id="Item" transform="translate(413.000000, 144.000000)">
                    <g id="Icon" transform="translate(116.000000, 0.000000)">
                        <path d="M77.0238325,89.1163161 C78.8572464,83.6856454 82.3923844,79.0364374 87.1066333,75.8586543 C91.8260034,72.6759252 97.427451,71.1698786 103.082062,71.5606099 C114.237647,72.3321806 123.562987,80.3199156 126.251409,91.2208246 L126.265066,91.2208246 L126.265066,74.7903257 L129.5,74.7903257 L129.5,94.5 L110.062838,94.5 L110.062838,91.2208246 L122.901368,91.2208246 C120.30391,82.1029363 112.338876,75.4901799 102.861604,74.8323664 C97.9181172,74.4910947 93.0238923,75.8067217 88.8978576,78.5888275 C84.8974159,81.286852 81.870015,85.1916921 80.2297461,89.7617646 C80.1802406,89.9002517 80.1317104,90.0387387 80.0846436,90.1796987 L79.560811,91.7302591 L76.5,90.6693494 L77.0238325,89.1163161 Z M126.976201,109.885578 C125.143149,115.315665 121.608239,119.964373 116.894538,123.141814 C112.175471,126.324201 106.574141,127.830086 100.919894,127.439397 C89.7650281,126.667909 80.4400441,118.681033 77.7520394,107.781296 L77.7349696,107.781296 L77.7349696,124.210028 L74.5,124.210028 L74.5,104.5 L93.9361539,104.5 L93.9361539,107.781296 L81.1018643,107.781296 C83.6989114,116.898204 91.6636768,123.510249 101.140094,124.167992 C106.08375,124.509227 110.97766,123.191269 115.103429,120.409462 C119.104344,117.711728 122.131794,113.807307 123.77147,109.235253 C123.820728,109.099254 123.869011,108.960782 123.915587,108.82231 L124.439386,107.269443 L127.5,108.332712 L126.976201,109.885578 Z M71.5,46.5 L103.5,46.5 L103.5,49.5 L71.5,49.5 L71.5,46.5 Z M83.6015791,68.6167811 L49.5669307,68.6167811 C39.7189297,68.6167811 31.7360749,76.5958273 31.7360749,86.4403902 C31.7360749,96.2873916 39.7189297,104.263999 49.5669307,104.263999 L64.1492708,104.263999 L64.1492708,107.5 L49.5669307,107.5 C37.9328193,107.5 28.5,98.072435 28.5,86.4403902 C28.5,77.6834357 33.8500373,70.1750361 41.4608875,67 C33.8529646,63.8225253 28.5048788,56.3141257 28.5048788,47.5596098 C28.5048788,35.9300036 37.9364784,26.5 49.5701019,26.5 L101.430971,26.5 C110.137101,26.5 117.947004,31.8526915 121.08404,39.970737 C124.22132,48.0912211 122.038812,57.3017522 115.592275,63.1519147 L114.394298,64.2395231 L112.589648,62.2520773 L112.219107,61.8448338 L113.417328,60.7572254 C118.873479,55.8044617 120.720817,48.0083092 118.065558,41.1363801 C115.410298,34.2644509 108.800079,29.7335621 101.430971,29.7335621 L49.5701019,29.7335621 C39.7225888,29.7335621 31.7407097,37.715047 31.7407097,47.5596098 C31.7407097,57.4017341 39.7235646,65.3832189 49.5701019,65.3832189 L83.6015791,65.3832189 L83.6015791,68.6167811 Z M50.0001129,46.5 C49.1713587,46.5 48.5,47.1726862 48.5,48.0011287 C48.5,48.8295711 49.1713587,49.5 50.0001129,49.5 C50.8286413,49.5 51.5,48.8295711 51.5,48.0011287 C51.5,47.1726862 50.8286413,46.5 50.0001129,46.5 Z M50.0001286,84.5 C51.3807698,84.5 52.5,85.6187335 52.5,86.9986807 C52.5,88.3812665 51.3807698,89.5 50.0001286,89.5 C48.6192302,89.5 47.5,88.3812665 47.5,86.9986807 C47.5,85.6187335 48.6192302,84.5 50.0001286,84.5 Z" id="Shape"></path>
                    </g>
                </g>
            </g>
        </g>
    </g>
</svg>