<?xml version="1.0" encoding="UTF-8"?>
<svg width="102px" height="102px" viewBox="0 0 102 102" version="1.1" xmlns="http://www.w3.org/2000/svg" xmlns:xlink="http://www.w3.org/1999/xlink">
    <g id="main" stroke="none" stroke-width="1" fill-rule="evenodd">
        <g transform="translate(-256.000000, -1527.000000)">
            <g transform="translate(112.000000, 1357.000000)">
                <g id="Icon" transform="translate(116.000000, 144.000000)">
                    <path d="M60.6112591,63.7201499 C61.2188664,64.3963476 62.0910768,64.7711964 62.9975876,64.7711964 C63.9065485,64.7711964 64.7787589,64.3963476 65.3839161,63.7201499 L68.1058987,60.6821603 C70.3991261,58.121919 74.0692699,57.3060718 77.2396078,58.6192673 C78.7880263,59.2611652 80.0963419,60.3710114 80.9906026,61.7895565 C81.8824132,63.2007517 82.3234185,64.859396 82.2401175,66.5278404 L82.0343151,70.5801265 C81.9877645,71.4841734 82.3234185,72.3931203 82.9653262,73.0350181 C83.6072339,73.676916 84.5161947,74.0101148 85.4202555,73.963565 L89.4726039,73.7602157 C91.155774,73.676916 92.824244,74.1228144 94.2452609,75.0268613 C95.6491277,75.9211083 96.7467408,77.2196039 97.3837484,78.7581986 C98.6969641,81.9260378 97.8664042,85.5887753 95.3208238,87.8868675 L92.3072878,90.6088082 C91.6310797,91.2188561 91.2439751,92.0886031 91.2439751,93 C91.2439751,93.9113969 91.6310797,94.7811439 92.3072878,95.3911918 L95.3208238,98.1131325 C97.8664042,100.411225 98.6969641,104.073962 97.3837484,107.241801 C96.7467408,108.780396 95.6491277,110.078892 94.247711,110.973139 C92.826694,111.877186 91.155774,112.323084 89.4726039,112.239784 L85.4202555,112.036435 C84.5161947,111.989885 83.6121339,112.332884 82.9726763,112.972332 C82.3332186,113.61178 81.9877645,114.515827 82.0343151,115.419873 L82.2401175,119.47216 C82.3234185,121.143054 81.8824132,122.799248 80.9906026,124.210443 C80.0963419,125.628989 78.7880263,126.738835 77.2396078,127.380733 C74.0692699,128.693928 70.3991261,127.878081 68.1058987,125.31784 L65.3839161,122.27985 C64.7787589,121.603652 63.9065485,121.226354 62.9975876,121.226354 C62.0910768,121.226354 61.2188664,121.603652 60.6112591,122.27985 L57.8917266,125.31784 C55.5984992,127.878081 51.9259054,128.693928 48.7555675,127.380733 C47.209599,126.738835 45.9037334,125.631439 45.0094727,124.215343 C44.115212,122.801698 43.6742068,121.143054 43.7575078,119.47216 L43.9633102,115.419873 C44.0098608,114.518277 43.6595066,113.61423 43.022499,112.977232 C42.3830413,112.337784 41.4814306,111.989885 40.5773698,112.036435 L36.5250214,112.239784 C34.8516514,112.323084 33.1880815,111.879636 31.7744146,110.985389 C30.3631977,110.088692 29.2582345,108.785296 28.6163269,107.241801 C27.3055612,104.073962 28.1287711,100.408775 30.6743515,98.1131325 L33.6903375,95.3911918 C34.3665456,94.7811439 34.7487501,93.9089469 34.7487501,93 C34.7487501,92.0910531 34.3665456,91.2188561 33.6903375,90.6088082 L30.6743515,87.8868675 C28.1287711,85.5912253 27.3055612,81.9260378 28.6163269,78.7581986 C29.2582345,77.2147039 30.3631977,75.9113083 31.7744146,75.0170614 C33.1880815,74.1203644 34.8516514,73.676916 36.5250214,73.7602157 L40.5773698,73.963565 C41.4814306,74.0101148 42.3854914,73.667116 43.024949,73.0276682 C43.6644067,72.3882204 44.0098608,71.4841734 43.9633102,70.5801265 L43.7575078,66.5278404 C43.6742068,64.8569461 44.115212,63.1983017 45.0094727,61.7846565 C45.9037334,60.3685614 47.209599,59.2611652 48.7555675,58.6192673 C51.9259054,57.3060718 55.5984992,58.121919 57.8917266,60.6821603 L60.6112591,63.7201499 Z M107.501056,47 C108.328642,47 109,47.6713582 109,48.5010556 C109,49.3286418 108.328642,50 107.501056,50 C106.671358,50 106,49.3286418 106,48.5010556 C106,47.6713582 106.671358,47 107.501056,47 Z M117.725167,30.8782537 C119.833234,30.0586238 122.235793,30.5616901 123.835862,32.1616863 C125.433477,33.7616825 125.939021,36.1641308 125.119353,38.2721012 L122.945026,43.862272 C122.817413,44.1911056 122.918031,44.5641108 123.192889,44.7849692 L127.865485,48.5420155 C129.62507,49.9555091 130.390748,52.2916999 129.806673,54.4708358 C129.220145,56.6573337 127.399207,58.2916856 125.163527,58.6376971 L119.236889,59.5579403 C118.888408,59.6119279 118.611095,59.8794119 118.557105,60.2303313 L117.639274,66.1616056 C117.293247,68.3971831 115.65882,70.2204917 113.474676,70.8069933 C111.292986,71.391041 108.956688,70.6229447 107.54313,68.8634397 L103.785912,64.1910581 C103.565043,63.9186661 103.192021,63.8106909 102.863172,63.938298 L97.2727453,66.1125259 C95.1646783,66.9346099 92.7621199,66.4290896 91.1620504,64.8290934 C89.561981,63.2290972 89.0588916,60.8291029 89.8785591,58.7211324 L92.0504326,53.1309617 C92.1780455,52.7996741 92.0798817,52.4266689 91.8025691,52.2058105 L87.1275194,48.4438562 C85.372842,47.0303626 84.6096187,44.6941719 85.1936931,42.5174899 C85.7802216,40.333446 87.6011596,38.7015481 89.8343854,38.3555366 L95.7610232,37.4402014 C96.1095046,37.3862138 96.3843631,37.1113678 96.4408073,36.7604484 L97.3561845,30.83899 C97.7022118,28.6034125 99.3341845,26.780104 101.520783,26.1936023 C103.704926,25.6095546 106.033862,26.372743 107.449874,28.134702 L111.209547,32.8070835 C111.430415,33.0819295 111.803438,33.1849967 112.132286,33.0549357 L117.725167,30.8782537 Z M57.8249989,66.6228318 L55.1335709,63.6189843 C53.7454627,62.0686113 51.524005,61.5816973 49.6077858,62.3762635 C47.6939892,63.1708296 46.4754579,65.1015284 46.5796265,67.1678848 L46.7806963,71.1770523 C46.8703298,72.9478689 46.2017123,74.6944609 44.946843,75.949294 C43.6919738,77.204127 41.9453316,77.8703029 40.174464,77.7830944 L36.1651811,77.579608 C34.0987652,77.4778648 32.1680108,78.696361 31.3758444,80.6076801 C30.5788328,82.5262666 31.075451,84.7452379 32.6186009,86.138151 L35.6031547,88.8270791 C36.9234322,90.0213507 37.6744157,91.721916 37.6744157,93.5 C37.6744157,95.2805064 36.9234322,96.9786493 35.6031547,98.1729209 L32.6186009,100.864271 C31.075451,102.254762 30.5788328,104.473733 31.3758444,106.39232 C32.1680108,108.303639 34.0987652,109.522135 36.1651811,109.41797 L40.174464,109.219328 C41.9477541,109.129697 43.6895513,109.798295 44.9444205,111.053128 C46.1968672,112.307962 46.8703298,114.054554 46.7806963,115.822948 L46.5796265,119.832115 C46.4754579,121.898472 47.6939892,123.82917 49.6077858,124.623737 C51.524005,125.418303 53.7454627,124.931389 55.1335709,123.381016 L57.8249989,120.377168 C59.0144599,119.049661 60.7174966,118.303544 62.4980543,118.303544 C64.278612,118.303544 65.9840713,119.049661 67.1735323,120.377168 L69.8649602,123.381016 C71.2530684,124.931389 73.4721036,125.41588 75.3907453,124.623737 C77.3021195,123.82917 78.5254958,121.900894 78.4189046,119.832115 L78.2178348,115.822948 C78.1282013,114.052131 78.7968189,112.305539 80.0516881,111.050706 C81.3065573,109.795873 83.0531996,109.129697 84.8240671,109.219328 L88.83335,109.41797 C90.8997659,109.522135 92.8353654,108.308484 93.6275318,106.39232 C94.4221208,104.471311 93.9182351,102.257185 92.3750851,100.861849 L89.3953764,98.1704984 C88.0726764,96.9786493 87.3192704,95.2805064 87.3192704,93.5 C87.3192704,91.7194936 88.0726764,90.0213507 89.3953764,88.8295016 L92.3750851,86.138151 C93.9182351,84.7452379 94.4221208,82.5286891 93.6275318,80.6076801 C92.8329428,78.6939385 90.8997659,77.4778648 88.83335,77.579608 L84.8240671,77.7830944 C83.0507771,77.8703029 81.3017122,77.2138169 80.0444205,75.9565613 C78.7847062,74.6993058 78.1282013,72.9502913 78.2178348,71.1770523 L78.4189046,67.1678848 C78.5254958,65.0991059 77.3021195,63.1708296 75.3907453,62.3762635 C73.4721036,61.5841198 71.2530684,62.0686113 69.8649602,63.6189843 L67.1735323,66.6228318 C65.9840713,67.9503386 64.278612,68.6988781 62.4980543,68.6988781 C60.7174966,68.6988781 59.0144599,67.9503386 57.8249989,66.6228318 Z M72,93 C72,97.969218 67.9697768,102 62.9987523,102 C58.0302232,102 54,97.969218 54,93 C54,88.0282862 58.0302232,84 62.9987523,84 C67.9697768,84 72,88.0282862 72,93 Z M68,93.5 C68,90.4599656 65.5381967,88 62.4988164,88 C59.4618033,88 57,90.4599656 57,93.5 C57,96.5376668 59.4618033,99 62.4988164,99 C65.5381967,99 68,96.5376668 68,93.5 Z M119.159196,33.5809951 L113.668295,35.718103 C112.090172,36.3324914 110.295209,35.8506181 109.232687,34.5302854 L105.541568,29.9428522 C104.917547,29.1670362 103.893575,28.8273156 102.929836,29.0851178 C101.966097,29.3453293 101.248112,30.1476483 101.096323,31.1330791 L100.195228,36.9468797 C99.9374275,38.6213893 98.6219242,39.9369032 96.9474283,40.1971148 L91.1288559,41.0958084 C90.1458424,41.2475984 89.34353,41.9655896 89.0857299,42.9293361 C88.8279298,43.8882638 89.162829,44.9146538 89.9386386,45.5386797 L94.5284441,49.2298287 C95.8487661,50.2923592 96.3258168,52.0873371 95.7138427,53.6654719 L93.5791615,59.1540082 C93.2177595,60.0840235 93.4394194,61.1417353 94.145358,61.8476796 C94.8512966,62.5536239 95.9089998,62.7752856 96.8390076,62.4138807 L102.3275,60.2791822 C103.905622,59.6647938 105.702994,60.1514858 106.763107,61.4694091 L110.451817,66.0592518 C111.075837,66.8350677 112.102219,67.172379 113.063549,66.9145768 C114.027287,66.6567746 114.747682,65.8520463 114.899471,64.8690248 L115.800566,59.0455867 C116.060776,57.3710772 117.376279,56.060382 119.050775,55.8025798 L124.866938,54.8990674 C125.852361,54.7472774 126.657083,54.0268769 126.914883,53.0631304 C127.172683,52.1017933 126.832965,51.0754032 126.057155,50.4513774 L121.469759,46.7626377 C120.149437,45.7025166 119.669977,43.9051294 120.281951,42.3269945 L122.416633,36.8384583 C122.778035,35.9084429 122.556375,34.8507311 121.852845,34.1447868 C121.146907,33.4412519 120.089204,33.2195902 119.159196,33.5809951 Z" id="Shape"></path>
                </g>
            </g>
        </g>
    </g>
</svg>