<?xml version="1.0" encoding="UTF-8"?>
<svg width="103px" height="102px" viewBox="0 0 103 102" version="1.1" xmlns="http://www.w3.org/2000/svg" xmlns:xlink="http://www.w3.org/1999/xlink">
    <g id="main" stroke="none" stroke-width="1" fill-rule="evenodd">
        <g transform="translate(-1083.000000, -1527.000000)" id="Main-Feature">
            <g transform="translate(112.000000, 1357.000000)">
                <g id="Item" transform="translate(826.000000, 144.000000)">
                    <g id="Icon" transform="translate(116.000000, 0.000000)">
                        <path d="M95,66 L95,75 L92,75 L92,66 L95,66 Z M48.0983688,105.28476 L44.8575961,105.28476 C40.653614,105.28476 36.6178887,103.611828 33.6453515,100.6323 C30.6703757,97.6552137 29,93.6133126 29,89.4028972 L29,76.4224111 C29,72.2095535 30.6703757,68.1700946 33.6453515,65.1905663 C36.2326049,62.5993535 39.624565,60.9948043 43.2335519,60.6235843 C43.9334028,51.7289597 47.7179621,43.3252245 54.0653898,36.9680833 C61.0760908,29.9466539 70.5838206,26 80.4987807,26 C90.4137409,26 99.9239092,29.9466539 106.93461,36.9680833 C113.277161,43.3227822 117.105613,51.7265174 117.776202,60.6235843 C121.380312,60.9996887 124.769834,62.6017958 127.354649,65.1905663 C130.327186,68.1700946 132,72.2095535 132,76.4224111 L132,89.4028972 C132,93.6133126 130.327186,97.6552137 127.354649,100.6323 C124.764957,103.225955 121.36812,104.830504 117.756694,105.201724 L117.756694,105.626673 C117.756694,109.50006 116.222875,113.214701 113.489311,115.952448 C110.755747,118.690195 107.046781,120.228804 103.181751,120.228804 L96.217382,120.228804 C95.8857454,122.119095 94.9834987,123.877505 93.6106205,125.250042 C91.8524586,127.010894 89.467601,128 86.9803262,128 L80.4987807,128 C78.0139445,128 75.6266484,127.010894 73.8684865,125.250042 C72.1103246,123.48919 71.1227302,121.09824 71.1227302,118.609601 C71.1227302,116.11852 72.1103246,113.730013 73.8684865,111.966719 C75.6266484,110.205866 78.011506,109.21676 80.4987807,109.21676 L86.9803262,109.21676 C89.467601,109.21676 91.8524586,110.205866 93.613059,111.966719 C94.9859372,113.341698 95.8881839,115.100108 96.217382,116.987956 L103.181751,116.987956 C106.188428,116.987956 109.075617,115.791261 111.201993,113.661631 C113.32837,111.532 114.523237,108.640393 114.523237,105.626673 L114.523237,105.28476 L112.901631,105.28476 C111.27271,105.28476 109.712067,104.637567 108.561093,103.484832 C107.410119,102.332096 106.763915,100.769065 106.763915,99.1376511 L106.763915,66.6876571 C106.763915,65.0562433 107.410119,63.4956543 108.558654,62.3429187 C109.709629,61.1877409 111.27271,60.5405483 112.901631,60.5405483 L114.274509,60.5405483 C113.594167,52.5983958 110.141244,45.1153837 104.469282,39.434742 C98.1121002,33.0702742 89.4895476,29.4899557 80.4987807,29.4899557 C71.5080139,29.4899557 62.8854613,33.0702742 56.5307181,39.434742 C50.8563176,45.1178259 47.4448495,52.6032803 46.7376832,60.5405483 L48.0983688,60.5405483 C49.7272899,60.5405483 51.287933,61.1877409 52.4389072,62.3429187 C53.5898814,63.4956543 54.2360851,65.0562433 54.2360851,66.6876571 L54.2360851,99.1376511 C54.2360851,100.769065 53.5898814,102.332096 52.4389072,103.484832 C51.287933,104.637567 49.7272899,105.28476 48.0983688,105.28476 Z M47.8329362,102 L44.6658723,102 C41.305782,102 38.0862912,100.630292 35.7103976,98.1917215 C33.334504,95.7531515 32,92.4462841 32,89 L32,76 C32,72.5537159 33.334504,69.2468485 35.7103976,66.8082785 C38.0862912,64.3697084 41.305782,63 44.6658723,63 L47.8329362,63 C48.6717672,63 49.4796187,63.3424271 50.0729964,63.953904 C50.666374,64.5629351 51,65.387206 51,66.2506115 L51,98.7493885 C51,99.612794 50.666374,100.439511 50.0729964,101.048542 C49.4796187,101.657573 48.6717672,102 47.8329362,102 Z M116.332539,102 L113.167461,102 C112.326141,102 111.520572,101.657573 110.92712,101.048542 C110.333668,100.439511 110,99.612794 110,98.7493885 L110,66.2506115 C110,65.387206 110.333668,64.5629351 110.92712,63.953904 C111.520572,63.3424271 112.326141,63 113.167461,63 L116.332539,63 C119.693051,63 122.915329,64.3697084 125.29152,66.8082785 C127.667712,69.2468485 129,72.5537159 129,76 L129,89 C129,92.4462841 127.667712,95.7531515 125.29152,98.1917215 C122.915329,100.630292 119.693051,102 116.332539,102 Z M86.6674611,125 L80.3325389,125 C78.6546663,125 77.041144,124.315146 75.8542398,123.097084 C74.6673357,121.879022 74,120.223142 74,118.501223 C74,116.776858 74.6673357,115.123424 75.8542398,113.902916 C77.041144,112.684854 78.6546663,112 80.3325389,112 L86.6674611,112 C88.347717,112 89.9564727,112.684854 91.1457602,113.902916 C92.3326643,115.123424 93,116.776858 93,118.501223 C93,120.223142 92.3326643,121.879022 91.1457602,123.097084 C89.9564727,124.315146 88.347717,125 86.6674611,125 Z M68.3205374,90.0994807 C68.7715931,90.5200875 69.2442418,90.9160973 69.731286,91.2825909 C72.6943378,93.5184477 76.2907869,94.7359934 80,94.7359934 C83.6996161,94.7359934 87.2864683,93.523367 90.2447217,91.3022684 C90.7413628,90.9308554 91.2212092,90.5274665 91.6818618,90.0994807 L92.8574856,89 L95,91.4129544 L93.8243762,92.5099754 C90.0431862,96.042088 85.1151631,98 80,98 C74.8872361,98 69.9568138,96.042088 66.178023,92.5099754 L65,91.4104947 L67.1449136,89 L68.3205374,90.0994807 Z M69,66 L69,75 L66,75 L66,66 L69,66 Z" id="Shape"></path>
                    </g>
                </g>
            </g>
        </g>
    </g>
</svg>